<mxfile host="app.diagrams.net" agent="Mozilla/5.0 (X11; Linux x86_64; rv:144.0) Gecko/20100101 Firefox/144.0" version="28.2.8">
  <diagram name="Page-1" id="c6eMDMYs05y3aS0nyrXy">
    <mxGraphModel dx="878" dy="1078" grid="1" gridSize="10" guides="1" tooltips="1" connect="1" arrows="1" fold="1" page="1" pageScale="1" pageWidth="850" pageHeight="1100" math="0" shadow="0">
      <root>
        <mxCell id="0" />
        <mxCell id="1" parent="0" />
        <mxCell id="zu5dfNaCLDgpixeDggmE-1" value="" style="rounded=1;whiteSpace=wrap;html=1;" parent="1" vertex="1">
          <mxGeometry x="170" y="105" width="140" height="200" as="geometry" />
        </mxCell>
        <mxCell id="zu5dfNaCLDgpixeDggmE-2" value="ESP 32" style="text;strokeColor=none;fillColor=none;html=1;align=center;verticalAlign=middle;whiteSpace=wrap;rounded=0;fontSize=16;" parent="1" vertex="1">
          <mxGeometry x="210" y="130" width="60" height="30" as="geometry" />
        </mxCell>
        <mxCell id="zu5dfNaCLDgpixeDggmE-3" value="Sensor 1" style="rounded=1;whiteSpace=wrap;html=1;" parent="1" vertex="1">
          <mxGeometry x="30" y="130" width="90" height="40" as="geometry" />
        </mxCell>
        <mxCell id="zu5dfNaCLDgpixeDggmE-4" value="Sensor 2" style="rounded=1;whiteSpace=wrap;html=1;" parent="1" vertex="1">
          <mxGeometry x="30" y="185" width="90" height="40" as="geometry" />
        </mxCell>
        <mxCell id="zu5dfNaCLDgpixeDggmE-5" value="Sensor 3" style="rounded=1;whiteSpace=wrap;html=1;" parent="1" vertex="1">
          <mxGeometry x="30" y="240" width="90" height="40" as="geometry" />
        </mxCell>
        <mxCell id="zu5dfNaCLDgpixeDggmE-11" value="" style="endArrow=classic;startArrow=classic;html=1;rounded=0;fontSize=12;startSize=8;endSize=8;curved=1;" parent="1" edge="1">
          <mxGeometry width="50" height="50" relative="1" as="geometry">
            <mxPoint x="120" y="259.47" as="sourcePoint" />
            <mxPoint x="170" y="259" as="targetPoint" />
          </mxGeometry>
        </mxCell>
        <mxCell id="zu5dfNaCLDgpixeDggmE-12" value="" style="endArrow=classic;startArrow=classic;html=1;rounded=0;fontSize=12;startSize=8;endSize=8;curved=1;" parent="1" edge="1">
          <mxGeometry width="50" height="50" relative="1" as="geometry">
            <mxPoint x="120" y="205.21000000000004" as="sourcePoint" />
            <mxPoint x="170" y="204.74" as="targetPoint" />
          </mxGeometry>
        </mxCell>
        <mxCell id="zu5dfNaCLDgpixeDggmE-13" value="" style="endArrow=classic;startArrow=classic;html=1;rounded=0;fontSize=12;startSize=8;endSize=8;curved=1;" parent="1" edge="1">
          <mxGeometry width="50" height="50" relative="1" as="geometry">
            <mxPoint x="120" y="149.94000000000003" as="sourcePoint" />
            <mxPoint x="170" y="149.47" as="targetPoint" />
          </mxGeometry>
        </mxCell>
        <mxCell id="zu5dfNaCLDgpixeDggmE-14" value="" style="html=1;strokeWidth=1;shadow=0;dashed=0;shape=mxgraph.ios7.misc.wifi;fillColor=#007AFF;strokeColor=none;buttonText=;strokeColor2=#222222;fontColor=#222222;fontSize=8;verticalLabelPosition=bottom;verticalAlign=top;align=center;sketch=0;" parent="1" vertex="1">
          <mxGeometry x="210" y="201.18" width="60" height="65" as="geometry" />
        </mxCell>
        <mxCell id="zu5dfNaCLDgpixeDggmE-19" value="" style="rounded=1;whiteSpace=wrap;html=1;" parent="1" vertex="1">
          <mxGeometry x="420" y="105" width="140" height="200" as="geometry" />
        </mxCell>
        <mxCell id="zu5dfNaCLDgpixeDggmE-20" value="Server" style="text;strokeColor=none;fillColor=none;html=1;align=center;verticalAlign=middle;whiteSpace=wrap;rounded=0;fontSize=16;" parent="1" vertex="1">
          <mxGeometry x="460" y="130" width="60" height="30" as="geometry" />
        </mxCell>
        <mxCell id="zu5dfNaCLDgpixeDggmE-21" value="" style="endArrow=classic;startArrow=classic;html=1;rounded=0;fontSize=12;startSize=8;endSize=8;curved=1;entryX=0;entryY=0.5;entryDx=0;entryDy=0;exitX=1;exitY=0.5;exitDx=0;exitDy=0;" parent="1" source="zu5dfNaCLDgpixeDggmE-1" target="zu5dfNaCLDgpixeDggmE-19" edge="1">
          <mxGeometry width="50" height="50" relative="1" as="geometry">
            <mxPoint x="360" y="220.47000000000003" as="sourcePoint" />
            <mxPoint x="410" y="220" as="targetPoint" />
            <Array as="points" />
          </mxGeometry>
        </mxCell>
        <mxCell id="zu5dfNaCLDgpixeDggmE-24" value="&lt;div&gt;WiFi&lt;/div&gt;" style="text;strokeColor=none;fillColor=none;html=1;align=center;verticalAlign=middle;whiteSpace=wrap;rounded=0;fontSize=16;" parent="1" vertex="1">
          <mxGeometry x="330" y="170" width="60" height="30" as="geometry" />
        </mxCell>
        <mxCell id="zu5dfNaCLDgpixeDggmE-25" value="Simplified overview" style="text;strokeColor=none;fillColor=none;html=1;align=center;verticalAlign=middle;whiteSpace=wrap;rounded=0;fontSize=16;" parent="1" vertex="1">
          <mxGeometry x="285" y="20" width="280" height="30" as="geometry" />
        </mxCell>
        <mxCell id="zu5dfNaCLDgpixeDggmE-26" value="Plot sensor data over time" style="rounded=1;whiteSpace=wrap;html=1;" parent="1" vertex="1">
          <mxGeometry x="650" y="105" width="140" height="200" as="geometry" />
        </mxCell>
        <mxCell id="zu5dfNaCLDgpixeDggmE-27" value="Web GUI" style="text;strokeColor=none;fillColor=none;html=1;align=center;verticalAlign=middle;whiteSpace=wrap;rounded=0;fontSize=16;" parent="1" vertex="1">
          <mxGeometry x="680" y="125" width="90" height="40" as="geometry" />
        </mxCell>
        <mxCell id="zu5dfNaCLDgpixeDggmE-28" value="" style="endArrow=classic;startArrow=classic;html=1;rounded=0;fontSize=12;startSize=8;endSize=8;curved=1;entryX=0;entryY=0.5;entryDx=0;entryDy=0;" parent="1" edge="1">
          <mxGeometry width="50" height="50" relative="1" as="geometry">
            <mxPoint x="560" y="201" as="sourcePoint" />
            <mxPoint x="650" y="201.18" as="targetPoint" />
            <Array as="points" />
          </mxGeometry>
        </mxCell>
      </root>
    </mxGraphModel>
  </diagram>
</mxfile>
